<svg width="28" height="28" viewBox="0 0 28 28" fill="none" xmlns="http://www.w3.org/2000/svg">
<circle cx="14" cy="14" r="14" fill="#CFD4D9"/>
<path d="M13.9986 7.28809C12.2414 7.28809 10.8168 8.71266 10.8168 10.4699C10.8168 12.2272 12.2414 13.6517 13.9986 13.6517C15.7559 13.6517 17.1804 12.2272 17.1804 10.4699C17.1804 8.71266 15.7559 7.28809 13.9986 7.28809ZM11.7515 14.4869C10.0879 14.9416 8.90771 16.3882 8.90771 18.1063V19.379C8.90771 19.7304 9.19261 20.0153 9.54408 20.0153H18.4532C18.8046 20.0153 19.0895 19.7304 19.0895 19.379V18.1063C19.0895 16.3882 17.9094 14.9416 16.2458 14.4869C16.1031 14.4479 15.963 14.4659 15.8282 14.5267C15.2456 14.7893 14.6254 14.9244 13.9986 14.9244C13.3719 14.9244 12.7517 14.7893 12.1691 14.5267C12.0342 14.4659 11.8941 14.4479 11.7515 14.4869Z" fill="white"/>
</svg>
